<mxfile host="Electron" agent="Mozilla/5.0 (Windows NT 10.0; Win64; x64) AppleWebKit/537.36 (KHTML, like Gecko) draw.io/24.7.17 Chrome/128.0.6613.36 Electron/32.0.1 Safari/537.36" version="24.7.17">
  <diagram name="Página-1" id="jrzhBpOQ1HH6mUbEt6R8">
    <mxGraphModel dx="2711" dy="2285" grid="1" gridSize="10" guides="1" tooltips="1" connect="1" arrows="1" fold="1" page="1" pageScale="1" pageWidth="827" pageHeight="1169" math="0" shadow="0">
      <root>
        <mxCell id="0" />
        <mxCell id="1" parent="0" />
        <mxCell id="QK3aenUht_MJ3_dk9sC--85" value="" style="rounded=1;arcSize=10;whiteSpace=wrap;html=1;align=center;" vertex="1" parent="1">
          <mxGeometry x="-60" y="-490" width="580" height="100" as="geometry" />
        </mxCell>
        <mxCell id="QK3aenUht_MJ3_dk9sC--84" value="" style="rounded=1;arcSize=10;whiteSpace=wrap;html=1;align=center;" vertex="1" parent="1">
          <mxGeometry x="-60" y="-590" width="580" height="90" as="geometry" />
        </mxCell>
        <mxCell id="QK3aenUht_MJ3_dk9sC--1" value="Operaciones" style="rounded=1;whiteSpace=wrap;html=1;" vertex="1" parent="1">
          <mxGeometry x="354" y="200" width="120" height="60" as="geometry" />
        </mxCell>
        <mxCell id="QK3aenUht_MJ3_dk9sC--2" value="Contenedores" style="rounded=1;whiteSpace=wrap;html=1;" vertex="1" parent="1">
          <mxGeometry x="510" y="-130" width="120" height="60" as="geometry" />
        </mxCell>
        <mxCell id="QK3aenUht_MJ3_dk9sC--4" value="Sesiones" style="rounded=1;whiteSpace=wrap;html=1;" vertex="1" parent="1">
          <mxGeometry x="510" y="220" width="120" height="60" as="geometry" />
        </mxCell>
        <mxCell id="QK3aenUht_MJ3_dk9sC--5" value="Usuarios" style="rounded=1;whiteSpace=wrap;html=1;" vertex="1" parent="1">
          <mxGeometry x="150" y="120" width="120" height="60" as="geometry" />
        </mxCell>
        <mxCell id="QK3aenUht_MJ3_dk9sC--6" value="Parcelas" style="rounded=1;whiteSpace=wrap;html=1;" vertex="1" parent="1">
          <mxGeometry x="-10" y="220" width="120" height="60" as="geometry" />
        </mxCell>
        <mxCell id="QK3aenUht_MJ3_dk9sC--7" value="Analíticas" style="rounded=1;whiteSpace=wrap;html=1;" vertex="1" parent="1">
          <mxGeometry x="150" y="-330" width="120" height="60" as="geometry" />
        </mxCell>
        <mxCell id="QK3aenUht_MJ3_dk9sC--9" value="Bodegas" style="rounded=1;whiteSpace=wrap;html=1;" vertex="1" parent="1">
          <mxGeometry x="510" y="120" width="120" height="60" as="geometry" />
        </mxCell>
        <mxCell id="QK3aenUht_MJ3_dk9sC--10" value="administra" style="shape=rhombus;perimeter=rhombusPerimeter;whiteSpace=wrap;html=1;align=center;" vertex="1" parent="1">
          <mxGeometry x="330" y="120" width="120" height="60" as="geometry" />
        </mxCell>
        <mxCell id="QK3aenUht_MJ3_dk9sC--11" value="" style="endArrow=none;html=1;rounded=0;exitX=1;exitY=0.5;exitDx=0;exitDy=0;entryX=0;entryY=0.5;entryDx=0;entryDy=0;" edge="1" parent="1" source="QK3aenUht_MJ3_dk9sC--10" target="QK3aenUht_MJ3_dk9sC--9">
          <mxGeometry relative="1" as="geometry">
            <mxPoint x="330" y="320" as="sourcePoint" />
            <mxPoint x="490" y="320" as="targetPoint" />
          </mxGeometry>
        </mxCell>
        <mxCell id="QK3aenUht_MJ3_dk9sC--12" value="1" style="resizable=0;html=1;whiteSpace=wrap;align=right;verticalAlign=bottom;" connectable="0" vertex="1" parent="QK3aenUht_MJ3_dk9sC--11">
          <mxGeometry x="1" relative="1" as="geometry">
            <mxPoint x="-20" as="offset" />
          </mxGeometry>
        </mxCell>
        <mxCell id="QK3aenUht_MJ3_dk9sC--13" value="" style="endArrow=none;html=1;rounded=0;entryX=1;entryY=0.5;entryDx=0;entryDy=0;exitX=0;exitY=0.5;exitDx=0;exitDy=0;" edge="1" parent="1" source="QK3aenUht_MJ3_dk9sC--10" target="QK3aenUht_MJ3_dk9sC--5">
          <mxGeometry relative="1" as="geometry">
            <mxPoint x="330" y="320" as="sourcePoint" />
            <mxPoint x="490" y="320" as="targetPoint" />
          </mxGeometry>
        </mxCell>
        <mxCell id="QK3aenUht_MJ3_dk9sC--14" value="N" style="resizable=0;html=1;whiteSpace=wrap;align=right;verticalAlign=bottom;" connectable="0" vertex="1" parent="QK3aenUht_MJ3_dk9sC--13">
          <mxGeometry x="1" relative="1" as="geometry">
            <mxPoint x="40" as="offset" />
          </mxGeometry>
        </mxCell>
        <mxCell id="QK3aenUht_MJ3_dk9sC--37" value="" style="edgeStyle=orthogonalEdgeStyle;rounded=0;orthogonalLoop=1;jettySize=auto;html=1;" edge="1" parent="1" source="QK3aenUht_MJ3_dk9sC--15" target="QK3aenUht_MJ3_dk9sC--9">
          <mxGeometry relative="1" as="geometry" />
        </mxCell>
        <mxCell id="QK3aenUht_MJ3_dk9sC--15" value="pertenece" style="shape=rhombus;perimeter=rhombusPerimeter;whiteSpace=wrap;html=1;align=center;" vertex="1" parent="1">
          <mxGeometry x="510" y="-10" width="120" height="60" as="geometry" />
        </mxCell>
        <mxCell id="QK3aenUht_MJ3_dk9sC--16" value="" style="endArrow=none;html=1;rounded=0;exitX=0.5;exitY=0;exitDx=0;exitDy=0;entryX=0.5;entryY=1;entryDx=0;entryDy=0;" edge="1" parent="1" source="QK3aenUht_MJ3_dk9sC--15" target="QK3aenUht_MJ3_dk9sC--2">
          <mxGeometry relative="1" as="geometry">
            <mxPoint x="460" y="160" as="sourcePoint" />
            <mxPoint x="520" y="160" as="targetPoint" />
          </mxGeometry>
        </mxCell>
        <mxCell id="QK3aenUht_MJ3_dk9sC--17" value="1" style="resizable=0;html=1;whiteSpace=wrap;align=right;verticalAlign=bottom;" connectable="0" vertex="1" parent="QK3aenUht_MJ3_dk9sC--16">
          <mxGeometry x="1" relative="1" as="geometry">
            <mxPoint x="20" y="40" as="offset" />
          </mxGeometry>
        </mxCell>
        <mxCell id="QK3aenUht_MJ3_dk9sC--18" value="" style="endArrow=none;html=1;rounded=0;entryX=0.5;entryY=0;entryDx=0;entryDy=0;exitX=0.5;exitY=1;exitDx=0;exitDy=0;" edge="1" parent="1" source="QK3aenUht_MJ3_dk9sC--15" target="QK3aenUht_MJ3_dk9sC--9">
          <mxGeometry relative="1" as="geometry">
            <mxPoint x="340" y="160" as="sourcePoint" />
            <mxPoint x="280" y="160" as="targetPoint" />
          </mxGeometry>
        </mxCell>
        <mxCell id="QK3aenUht_MJ3_dk9sC--19" value="N" style="resizable=0;html=1;whiteSpace=wrap;align=right;verticalAlign=bottom;" connectable="0" vertex="1" parent="QK3aenUht_MJ3_dk9sC--18">
          <mxGeometry x="1" relative="1" as="geometry">
            <mxPoint x="20" y="-20" as="offset" />
          </mxGeometry>
        </mxCell>
        <mxCell id="QK3aenUht_MJ3_dk9sC--41" value="" style="edgeStyle=orthogonalEdgeStyle;rounded=0;orthogonalLoop=1;jettySize=auto;html=1;" edge="1" parent="1" source="QK3aenUht_MJ3_dk9sC--20" target="QK3aenUht_MJ3_dk9sC--28">
          <mxGeometry relative="1" as="geometry" />
        </mxCell>
        <mxCell id="QK3aenUht_MJ3_dk9sC--20" value="contiene" style="shape=rhombus;perimeter=rhombusPerimeter;whiteSpace=wrap;html=1;align=center;" vertex="1" parent="1">
          <mxGeometry x="340" y="-130" width="120" height="60" as="geometry" />
        </mxCell>
        <mxCell id="QK3aenUht_MJ3_dk9sC--21" value="" style="endArrow=none;html=1;rounded=0;exitX=1;exitY=0.5;exitDx=0;exitDy=0;entryX=0;entryY=0.5;entryDx=0;entryDy=0;" edge="1" parent="1" source="QK3aenUht_MJ3_dk9sC--20" target="QK3aenUht_MJ3_dk9sC--2">
          <mxGeometry relative="1" as="geometry">
            <mxPoint x="444" y="-40" as="sourcePoint" />
            <mxPoint x="504" y="-40" as="targetPoint" />
          </mxGeometry>
        </mxCell>
        <mxCell id="QK3aenUht_MJ3_dk9sC--22" value="0,1" style="resizable=0;html=1;whiteSpace=wrap;align=right;verticalAlign=bottom;" connectable="0" vertex="1" parent="QK3aenUht_MJ3_dk9sC--21">
          <mxGeometry x="1" relative="1" as="geometry">
            <mxPoint x="-20" as="offset" />
          </mxGeometry>
        </mxCell>
        <mxCell id="QK3aenUht_MJ3_dk9sC--24" value="" style="endArrow=none;html=1;rounded=0;exitX=1;exitY=0.5;exitDx=0;exitDy=0;entryX=0;entryY=0.5;entryDx=0;entryDy=0;" edge="1" parent="1" source="QK3aenUht_MJ3_dk9sC--28" target="QK3aenUht_MJ3_dk9sC--20">
          <mxGeometry relative="1" as="geometry">
            <mxPoint x="280" y="-100" as="sourcePoint" />
            <mxPoint x="520" y="-90" as="targetPoint" />
          </mxGeometry>
        </mxCell>
        <mxCell id="QK3aenUht_MJ3_dk9sC--25" value="N" style="resizable=0;html=1;whiteSpace=wrap;align=right;verticalAlign=bottom;" connectable="0" vertex="1" parent="QK3aenUht_MJ3_dk9sC--24">
          <mxGeometry x="1" relative="1" as="geometry">
            <mxPoint x="-20" as="offset" />
          </mxGeometry>
        </mxCell>
        <mxCell id="QK3aenUht_MJ3_dk9sC--26" value="Lote de entrada" style="rounded=1;whiteSpace=wrap;html=1;" vertex="1" parent="1">
          <mxGeometry x="-10" y="40" width="120" height="60" as="geometry" />
        </mxCell>
        <mxCell id="QK3aenUht_MJ3_dk9sC--27" value="Lote de salida" style="rounded=1;whiteSpace=wrap;html=1;" vertex="1" parent="1">
          <mxGeometry x="150" y="-40" width="120" height="60" as="geometry" />
        </mxCell>
        <mxCell id="QK3aenUht_MJ3_dk9sC--28" value="Lote de estancia" style="rounded=1;whiteSpace=wrap;html=1;" vertex="1" parent="1">
          <mxGeometry x="150" y="-130" width="120" height="60" as="geometry" />
        </mxCell>
        <mxCell id="QK3aenUht_MJ3_dk9sC--29" value="" style="triangle;whiteSpace=wrap;html=1;rotation=-180;" vertex="1" parent="1">
          <mxGeometry x="20" y="-140" width="60" height="80" as="geometry" />
        </mxCell>
        <mxCell id="QK3aenUht_MJ3_dk9sC--30" value="" style="endArrow=none;html=1;rounded=0;exitX=0;exitY=0.5;exitDx=0;exitDy=0;entryX=0;entryY=0.5;entryDx=0;entryDy=0;" edge="1" parent="1" source="QK3aenUht_MJ3_dk9sC--29" target="QK3aenUht_MJ3_dk9sC--28">
          <mxGeometry relative="1" as="geometry">
            <mxPoint x="40" y="-80" as="sourcePoint" />
            <mxPoint x="200" y="-80" as="targetPoint" />
          </mxGeometry>
        </mxCell>
        <mxCell id="QK3aenUht_MJ3_dk9sC--31" value="" style="endArrow=none;html=1;rounded=0;entryX=0;entryY=0.5;entryDx=0;entryDy=0;" edge="1" parent="1" target="QK3aenUht_MJ3_dk9sC--27">
          <mxGeometry relative="1" as="geometry">
            <mxPoint x="80" y="-100" as="sourcePoint" />
            <mxPoint x="160" y="-90" as="targetPoint" />
            <Array as="points">
              <mxPoint x="120" y="-100" />
              <mxPoint x="120" y="-10" />
            </Array>
          </mxGeometry>
        </mxCell>
        <mxCell id="QK3aenUht_MJ3_dk9sC--32" value="" style="endArrow=none;html=1;rounded=0;entryX=1;entryY=0.5;entryDx=0;entryDy=0;exitX=0;exitY=0.5;exitDx=0;exitDy=0;" edge="1" parent="1" source="QK3aenUht_MJ3_dk9sC--29" target="QK3aenUht_MJ3_dk9sC--26">
          <mxGeometry relative="1" as="geometry">
            <mxPoint x="90" y="-120" as="sourcePoint" />
            <mxPoint x="160" as="targetPoint" />
            <Array as="points">
              <mxPoint x="120" y="-100" />
              <mxPoint x="120" y="70" />
            </Array>
          </mxGeometry>
        </mxCell>
        <mxCell id="QK3aenUht_MJ3_dk9sC--33" value="Lotes" style="rounded=1;whiteSpace=wrap;html=1;" vertex="1" parent="1">
          <mxGeometry x="-140" y="-130" width="120" height="60" as="geometry" />
        </mxCell>
        <mxCell id="QK3aenUht_MJ3_dk9sC--34" value="" style="endArrow=none;html=1;rounded=0;entryX=1;entryY=0.5;entryDx=0;entryDy=0;exitX=1;exitY=0.5;exitDx=0;exitDy=0;" edge="1" parent="1" source="QK3aenUht_MJ3_dk9sC--33" target="QK3aenUht_MJ3_dk9sC--29">
          <mxGeometry relative="1" as="geometry">
            <mxPoint x="90" y="-90" as="sourcePoint" />
            <mxPoint x="160" y="-190" as="targetPoint" />
            <Array as="points" />
          </mxGeometry>
        </mxCell>
        <mxCell id="QK3aenUht_MJ3_dk9sC--35" value="tiempo_inicio" style="ellipse;whiteSpace=wrap;html=1;align=center;" vertex="1" parent="1">
          <mxGeometry x="350" y="-200" width="100" height="40" as="geometry" />
        </mxCell>
        <mxCell id="QK3aenUht_MJ3_dk9sC--36" value="" style="endArrow=none;html=1;rounded=0;exitX=0.5;exitY=1;exitDx=0;exitDy=0;entryX=0.5;entryY=0;entryDx=0;entryDy=0;" edge="1" parent="1" source="QK3aenUht_MJ3_dk9sC--35" target="QK3aenUht_MJ3_dk9sC--20">
          <mxGeometry relative="1" as="geometry">
            <mxPoint x="90" y="-90" as="sourcePoint" />
            <mxPoint x="160" y="-90" as="targetPoint" />
          </mxGeometry>
        </mxCell>
        <mxCell id="QK3aenUht_MJ3_dk9sC--38" value="" style="endArrow=none;html=1;rounded=0;entryX=0.5;entryY=0;entryDx=0;entryDy=0;exitX=0.5;exitY=1;exitDx=0;exitDy=0;" edge="1" parent="1" source="QK3aenUht_MJ3_dk9sC--40" target="QK3aenUht_MJ3_dk9sC--28">
          <mxGeometry relative="1" as="geometry">
            <mxPoint x="580" y="60" as="sourcePoint" />
            <mxPoint x="580" y="130" as="targetPoint" />
            <Array as="points">
              <mxPoint x="210" y="-180" />
            </Array>
          </mxGeometry>
        </mxCell>
        <mxCell id="QK3aenUht_MJ3_dk9sC--39" value="N" style="resizable=0;html=1;whiteSpace=wrap;align=right;verticalAlign=bottom;" connectable="0" vertex="1" parent="QK3aenUht_MJ3_dk9sC--38">
          <mxGeometry x="1" relative="1" as="geometry">
            <mxPoint x="20" y="-10" as="offset" />
          </mxGeometry>
        </mxCell>
        <mxCell id="QK3aenUht_MJ3_dk9sC--40" value="analiza" style="shape=rhombus;perimeter=rhombusPerimeter;whiteSpace=wrap;html=1;align=center;" vertex="1" parent="1">
          <mxGeometry x="150" y="-230" width="120" height="60" as="geometry" />
        </mxCell>
        <mxCell id="QK3aenUht_MJ3_dk9sC--42" value="" style="endArrow=none;html=1;rounded=0;exitX=0.5;exitY=0;exitDx=0;exitDy=0;entryX=0.5;entryY=1;entryDx=0;entryDy=0;" edge="1" parent="1" source="QK3aenUht_MJ3_dk9sC--40" target="QK3aenUht_MJ3_dk9sC--7">
          <mxGeometry relative="1" as="geometry">
            <mxPoint x="280" y="-90" as="sourcePoint" />
            <mxPoint x="350" y="-90" as="targetPoint" />
          </mxGeometry>
        </mxCell>
        <mxCell id="QK3aenUht_MJ3_dk9sC--43" value="1" style="resizable=0;html=1;whiteSpace=wrap;align=right;verticalAlign=bottom;" connectable="0" vertex="1" parent="QK3aenUht_MJ3_dk9sC--42">
          <mxGeometry x="1" relative="1" as="geometry">
            <mxPoint x="20" y="30" as="offset" />
          </mxGeometry>
        </mxCell>
        <mxCell id="QK3aenUht_MJ3_dk9sC--44" value="proviene" style="shape=rhombus;perimeter=rhombusPerimeter;whiteSpace=wrap;html=1;align=center;" vertex="1" parent="1">
          <mxGeometry x="-10" y="130" width="120" height="60" as="geometry" />
        </mxCell>
        <mxCell id="QK3aenUht_MJ3_dk9sC--45" value="" style="endArrow=none;html=1;rounded=0;entryX=0.5;entryY=1;entryDx=0;entryDy=0;exitX=0.5;exitY=0;exitDx=0;exitDy=0;" edge="1" parent="1" source="QK3aenUht_MJ3_dk9sC--6" target="QK3aenUht_MJ3_dk9sC--44">
          <mxGeometry relative="1" as="geometry">
            <mxPoint x="340" y="160" as="sourcePoint" />
            <mxPoint x="280" y="160" as="targetPoint" />
          </mxGeometry>
        </mxCell>
        <mxCell id="QK3aenUht_MJ3_dk9sC--46" value="N" style="resizable=0;html=1;whiteSpace=wrap;align=right;verticalAlign=bottom;" connectable="0" vertex="1" parent="QK3aenUht_MJ3_dk9sC--45">
          <mxGeometry x="1" relative="1" as="geometry">
            <mxPoint x="20" y="20" as="offset" />
          </mxGeometry>
        </mxCell>
        <mxCell id="QK3aenUht_MJ3_dk9sC--47" value="" style="endArrow=none;html=1;rounded=0;entryX=0.5;entryY=1;entryDx=0;entryDy=0;exitX=0.5;exitY=0;exitDx=0;exitDy=0;" edge="1" parent="1" source="QK3aenUht_MJ3_dk9sC--44" target="QK3aenUht_MJ3_dk9sC--26">
          <mxGeometry relative="1" as="geometry">
            <mxPoint x="350" y="170" as="sourcePoint" />
            <mxPoint x="290" y="170" as="targetPoint" />
          </mxGeometry>
        </mxCell>
        <mxCell id="QK3aenUht_MJ3_dk9sC--48" value="N" style="resizable=0;html=1;whiteSpace=wrap;align=right;verticalAlign=bottom;" connectable="0" vertex="1" parent="QK3aenUht_MJ3_dk9sC--47">
          <mxGeometry x="1" relative="1" as="geometry">
            <mxPoint x="30" y="30" as="offset" />
          </mxGeometry>
        </mxCell>
        <mxCell id="QK3aenUht_MJ3_dk9sC--55" value="Lote de estancia" style="rounded=1;whiteSpace=wrap;html=1;" vertex="1" parent="1">
          <mxGeometry x="-10" y="-470" width="120" height="60" as="geometry" />
        </mxCell>
        <mxCell id="QK3aenUht_MJ3_dk9sC--56" value="Lote de estancia" style="rounded=1;whiteSpace=wrap;html=1;" vertex="1" parent="1">
          <mxGeometry x="350" y="-470" width="120" height="60" as="geometry" />
        </mxCell>
        <mxCell id="QK3aenUht_MJ3_dk9sC--57" value="movimiento" style="shape=rhombus;perimeter=rhombusPerimeter;whiteSpace=wrap;html=1;align=center;" vertex="1" parent="1">
          <mxGeometry x="170" y="-470" width="120" height="60" as="geometry" />
        </mxCell>
        <mxCell id="QK3aenUht_MJ3_dk9sC--59" value="" style="endArrow=none;html=1;rounded=0;entryX=0;entryY=0.5;entryDx=0;entryDy=0;exitX=1;exitY=0.5;exitDx=0;exitDy=0;" edge="1" parent="1" source="QK3aenUht_MJ3_dk9sC--55" target="QK3aenUht_MJ3_dk9sC--57">
          <mxGeometry relative="1" as="geometry">
            <mxPoint x="120" y="-430" as="sourcePoint" />
            <mxPoint x="140" y="-440.51" as="targetPoint" />
          </mxGeometry>
        </mxCell>
        <mxCell id="QK3aenUht_MJ3_dk9sC--60" value="N" style="resizable=0;html=1;whiteSpace=wrap;align=right;verticalAlign=bottom;" connectable="0" vertex="1" parent="QK3aenUht_MJ3_dk9sC--59">
          <mxGeometry x="1" relative="1" as="geometry">
            <mxPoint x="-20" y="-10" as="offset" />
          </mxGeometry>
        </mxCell>
        <mxCell id="QK3aenUht_MJ3_dk9sC--62" value="origen" style="edgeLabel;html=1;align=center;verticalAlign=middle;resizable=0;points=[];" vertex="1" connectable="0" parent="QK3aenUht_MJ3_dk9sC--59">
          <mxGeometry x="0.0974" y="-1" relative="1" as="geometry">
            <mxPoint as="offset" />
          </mxGeometry>
        </mxCell>
        <mxCell id="QK3aenUht_MJ3_dk9sC--63" value="" style="endArrow=none;html=1;rounded=0;entryX=0;entryY=0.5;entryDx=0;entryDy=0;exitX=1;exitY=0.5;exitDx=0;exitDy=0;" edge="1" parent="1" source="QK3aenUht_MJ3_dk9sC--57" target="QK3aenUht_MJ3_dk9sC--56">
          <mxGeometry relative="1" as="geometry">
            <mxPoint x="120" y="-430" as="sourcePoint" />
            <mxPoint x="180" y="-430" as="targetPoint" />
          </mxGeometry>
        </mxCell>
        <mxCell id="QK3aenUht_MJ3_dk9sC--64" value="1" style="resizable=0;html=1;whiteSpace=wrap;align=right;verticalAlign=bottom;" connectable="0" vertex="1" parent="QK3aenUht_MJ3_dk9sC--63">
          <mxGeometry x="1" relative="1" as="geometry">
            <mxPoint x="-20" y="-10" as="offset" />
          </mxGeometry>
        </mxCell>
        <mxCell id="QK3aenUht_MJ3_dk9sC--65" value="origen" style="edgeLabel;html=1;align=center;verticalAlign=middle;resizable=0;points=[];" vertex="1" connectable="0" parent="QK3aenUht_MJ3_dk9sC--63">
          <mxGeometry x="0.0974" y="-1" relative="1" as="geometry">
            <mxPoint as="offset" />
          </mxGeometry>
        </mxCell>
        <mxCell id="QK3aenUht_MJ3_dk9sC--66" value="destino" style="edgeLabel;html=1;align=center;verticalAlign=middle;resizable=0;points=[];" vertex="1" connectable="0" parent="QK3aenUht_MJ3_dk9sC--63">
          <mxGeometry x="0.0564" y="-2" relative="1" as="geometry">
            <mxPoint as="offset" />
          </mxGeometry>
        </mxCell>
        <mxCell id="QK3aenUht_MJ3_dk9sC--67" value="salida" style="shape=rhombus;perimeter=rhombusPerimeter;whiteSpace=wrap;html=1;align=center;" vertex="1" parent="1">
          <mxGeometry x="170" y="-570" width="120" height="60" as="geometry" />
        </mxCell>
        <mxCell id="QK3aenUht_MJ3_dk9sC--68" value="Lote de estancia" style="rounded=1;whiteSpace=wrap;html=1;" vertex="1" parent="1">
          <mxGeometry x="-10" y="-570" width="120" height="60" as="geometry" />
        </mxCell>
        <mxCell id="QK3aenUht_MJ3_dk9sC--69" value="Lote de salida" style="rounded=1;whiteSpace=wrap;html=1;" vertex="1" parent="1">
          <mxGeometry x="340" y="-570" width="120" height="60" as="geometry" />
        </mxCell>
        <mxCell id="QK3aenUht_MJ3_dk9sC--70" value="" style="endArrow=none;html=1;rounded=0;entryX=0;entryY=0.5;entryDx=0;entryDy=0;exitX=1;exitY=0.5;exitDx=0;exitDy=0;" edge="1" parent="1" source="QK3aenUht_MJ3_dk9sC--67" target="QK3aenUht_MJ3_dk9sC--69">
          <mxGeometry relative="1" as="geometry">
            <mxPoint x="300" y="-430" as="sourcePoint" />
            <mxPoint x="360" y="-430" as="targetPoint" />
          </mxGeometry>
        </mxCell>
        <mxCell id="QK3aenUht_MJ3_dk9sC--71" value="1" style="resizable=0;html=1;whiteSpace=wrap;align=right;verticalAlign=bottom;" connectable="0" vertex="1" parent="QK3aenUht_MJ3_dk9sC--70">
          <mxGeometry x="1" relative="1" as="geometry">
            <mxPoint x="-20" y="-10" as="offset" />
          </mxGeometry>
        </mxCell>
        <mxCell id="QK3aenUht_MJ3_dk9sC--72" value="origen" style="edgeLabel;html=1;align=center;verticalAlign=middle;resizable=0;points=[];" vertex="1" connectable="0" parent="QK3aenUht_MJ3_dk9sC--70">
          <mxGeometry x="0.0974" y="-1" relative="1" as="geometry">
            <mxPoint as="offset" />
          </mxGeometry>
        </mxCell>
        <mxCell id="QK3aenUht_MJ3_dk9sC--73" value="destino" style="edgeLabel;html=1;align=center;verticalAlign=middle;resizable=0;points=[];" vertex="1" connectable="0" parent="QK3aenUht_MJ3_dk9sC--70">
          <mxGeometry x="0.0564" y="-2" relative="1" as="geometry">
            <mxPoint as="offset" />
          </mxGeometry>
        </mxCell>
        <mxCell id="QK3aenUht_MJ3_dk9sC--78" value="" style="endArrow=none;html=1;rounded=0;entryX=0;entryY=0.5;entryDx=0;entryDy=0;exitX=1;exitY=0.5;exitDx=0;exitDy=0;" edge="1" parent="1" source="QK3aenUht_MJ3_dk9sC--68" target="QK3aenUht_MJ3_dk9sC--67">
          <mxGeometry relative="1" as="geometry">
            <mxPoint x="120" y="-430" as="sourcePoint" />
            <mxPoint x="180" y="-430" as="targetPoint" />
          </mxGeometry>
        </mxCell>
        <mxCell id="QK3aenUht_MJ3_dk9sC--79" value="N" style="resizable=0;html=1;whiteSpace=wrap;align=right;verticalAlign=bottom;" connectable="0" vertex="1" parent="QK3aenUht_MJ3_dk9sC--78">
          <mxGeometry x="1" relative="1" as="geometry">
            <mxPoint x="-20" y="-10" as="offset" />
          </mxGeometry>
        </mxCell>
        <mxCell id="QK3aenUht_MJ3_dk9sC--80" value="origen" style="edgeLabel;html=1;align=center;verticalAlign=middle;resizable=0;points=[];" vertex="1" connectable="0" parent="QK3aenUht_MJ3_dk9sC--78">
          <mxGeometry x="0.0974" y="-1" relative="1" as="geometry">
            <mxPoint as="offset" />
          </mxGeometry>
        </mxCell>
        <mxCell id="QK3aenUht_MJ3_dk9sC--81" value="tiempo_fin" style="ellipse;whiteSpace=wrap;html=1;align=center;" vertex="1" parent="1">
          <mxGeometry x="350" y="-40" width="100" height="40" as="geometry" />
        </mxCell>
        <mxCell id="QK3aenUht_MJ3_dk9sC--82" value="" style="endArrow=none;html=1;rounded=0;exitX=0.5;exitY=0;exitDx=0;exitDy=0;entryX=0.5;entryY=1;entryDx=0;entryDy=0;" edge="1" parent="1" source="QK3aenUht_MJ3_dk9sC--81" target="QK3aenUht_MJ3_dk9sC--20">
          <mxGeometry relative="1" as="geometry">
            <mxPoint x="410" y="-150" as="sourcePoint" />
            <mxPoint x="410" y="-120" as="targetPoint" />
          </mxGeometry>
        </mxCell>
        <mxCell id="QK3aenUht_MJ3_dk9sC--87" value="merge" style="shape=rhombus;perimeter=rhombusPerimeter;whiteSpace=wrap;html=1;align=center;" vertex="1" parent="1">
          <mxGeometry x="205" y="400" width="120" height="60" as="geometry" />
        </mxCell>
        <mxCell id="QK3aenUht_MJ3_dk9sC--88" value="Lote de estancia" style="rounded=1;whiteSpace=wrap;html=1;" vertex="1" parent="1">
          <mxGeometry x="25" y="400" width="120" height="60" as="geometry" />
        </mxCell>
        <mxCell id="QK3aenUht_MJ3_dk9sC--102" value="" style="edgeStyle=orthogonalEdgeStyle;rounded=0;orthogonalLoop=1;jettySize=auto;html=1;" edge="1" parent="1" source="QK3aenUht_MJ3_dk9sC--89" target="QK3aenUht_MJ3_dk9sC--87">
          <mxGeometry relative="1" as="geometry" />
        </mxCell>
        <mxCell id="QK3aenUht_MJ3_dk9sC--89" value="Lote de estancia" style="rounded=1;whiteSpace=wrap;html=1;" vertex="1" parent="1">
          <mxGeometry x="375" y="400" width="120" height="60" as="geometry" />
        </mxCell>
        <mxCell id="QK3aenUht_MJ3_dk9sC--90" value="" style="endArrow=none;html=1;rounded=0;entryX=0;entryY=0.5;entryDx=0;entryDy=0;exitX=1;exitY=0.5;exitDx=0;exitDy=0;" edge="1" parent="1" source="QK3aenUht_MJ3_dk9sC--87" target="QK3aenUht_MJ3_dk9sC--89">
          <mxGeometry relative="1" as="geometry">
            <mxPoint x="335" y="540" as="sourcePoint" />
            <mxPoint x="395" y="540" as="targetPoint" />
          </mxGeometry>
        </mxCell>
        <mxCell id="QK3aenUht_MJ3_dk9sC--91" value="0,1" style="resizable=0;html=1;whiteSpace=wrap;align=right;verticalAlign=bottom;" connectable="0" vertex="1" parent="QK3aenUht_MJ3_dk9sC--90">
          <mxGeometry x="1" relative="1" as="geometry">
            <mxPoint x="-20" y="-10" as="offset" />
          </mxGeometry>
        </mxCell>
        <mxCell id="QK3aenUht_MJ3_dk9sC--92" value="origen" style="edgeLabel;html=1;align=center;verticalAlign=middle;resizable=0;points=[];" vertex="1" connectable="0" parent="QK3aenUht_MJ3_dk9sC--90">
          <mxGeometry x="0.0974" y="-1" relative="1" as="geometry">
            <mxPoint as="offset" />
          </mxGeometry>
        </mxCell>
        <mxCell id="QK3aenUht_MJ3_dk9sC--93" value="fusión" style="edgeLabel;html=1;align=center;verticalAlign=middle;resizable=0;points=[];" vertex="1" connectable="0" parent="QK3aenUht_MJ3_dk9sC--90">
          <mxGeometry x="0.0564" y="-2" relative="1" as="geometry">
            <mxPoint as="offset" />
          </mxGeometry>
        </mxCell>
        <mxCell id="QK3aenUht_MJ3_dk9sC--94" value="" style="endArrow=none;html=1;rounded=0;entryX=0;entryY=0.5;entryDx=0;entryDy=0;exitX=1;exitY=0.5;exitDx=0;exitDy=0;" edge="1" parent="1" source="QK3aenUht_MJ3_dk9sC--88" target="QK3aenUht_MJ3_dk9sC--87">
          <mxGeometry relative="1" as="geometry">
            <mxPoint x="155" y="540" as="sourcePoint" />
            <mxPoint x="215" y="540" as="targetPoint" />
          </mxGeometry>
        </mxCell>
        <mxCell id="QK3aenUht_MJ3_dk9sC--95" value="0,1" style="resizable=0;html=1;whiteSpace=wrap;align=right;verticalAlign=bottom;" connectable="0" vertex="1" parent="QK3aenUht_MJ3_dk9sC--94">
          <mxGeometry x="1" relative="1" as="geometry">
            <mxPoint x="-20" y="-10" as="offset" />
          </mxGeometry>
        </mxCell>
        <mxCell id="QK3aenUht_MJ3_dk9sC--96" value="origen1" style="edgeLabel;html=1;align=center;verticalAlign=middle;resizable=0;points=[];" vertex="1" connectable="0" parent="QK3aenUht_MJ3_dk9sC--94">
          <mxGeometry x="0.0974" y="-1" relative="1" as="geometry">
            <mxPoint as="offset" />
          </mxGeometry>
        </mxCell>
        <mxCell id="QK3aenUht_MJ3_dk9sC--97" value="Lote de estancia" style="rounded=1;whiteSpace=wrap;html=1;" vertex="1" parent="1">
          <mxGeometry x="25" y="320" width="120" height="60" as="geometry" />
        </mxCell>
        <mxCell id="QK3aenUht_MJ3_dk9sC--98" value="" style="endArrow=none;html=1;rounded=0;entryX=0.5;entryY=0;entryDx=0;entryDy=0;exitX=1;exitY=0.5;exitDx=0;exitDy=0;" edge="1" parent="1" source="QK3aenUht_MJ3_dk9sC--97" target="QK3aenUht_MJ3_dk9sC--87">
          <mxGeometry relative="1" as="geometry">
            <mxPoint x="155" y="440" as="sourcePoint" />
            <mxPoint x="215" y="440" as="targetPoint" />
            <Array as="points">
              <mxPoint x="265" y="350" />
            </Array>
          </mxGeometry>
        </mxCell>
        <mxCell id="QK3aenUht_MJ3_dk9sC--99" value="0,1" style="resizable=0;html=1;whiteSpace=wrap;align=right;verticalAlign=bottom;" connectable="0" vertex="1" parent="QK3aenUht_MJ3_dk9sC--98">
          <mxGeometry x="1" relative="1" as="geometry">
            <mxPoint x="-20" y="-10" as="offset" />
          </mxGeometry>
        </mxCell>
        <mxCell id="QK3aenUht_MJ3_dk9sC--100" value="origen1" style="edgeLabel;html=1;align=center;verticalAlign=middle;resizable=0;points=[];" vertex="1" connectable="0" parent="QK3aenUht_MJ3_dk9sC--98">
          <mxGeometry x="0.0974" y="-1" relative="1" as="geometry">
            <mxPoint as="offset" />
          </mxGeometry>
        </mxCell>
        <mxCell id="QK3aenUht_MJ3_dk9sC--103" value="tiempo" style="ellipse;whiteSpace=wrap;html=1;align=center;" vertex="1" parent="1">
          <mxGeometry x="215" y="510" width="100" height="40" as="geometry" />
        </mxCell>
        <mxCell id="QK3aenUht_MJ3_dk9sC--104" value="" style="endArrow=none;html=1;rounded=0;entryX=0.5;entryY=0;entryDx=0;entryDy=0;exitX=0.5;exitY=1;exitDx=0;exitDy=0;" edge="1" parent="1" source="QK3aenUht_MJ3_dk9sC--87" target="QK3aenUht_MJ3_dk9sC--103">
          <mxGeometry relative="1" as="geometry">
            <mxPoint x="290" y="490" as="sourcePoint" />
            <mxPoint x="230" y="490" as="targetPoint" />
          </mxGeometry>
        </mxCell>
      </root>
    </mxGraphModel>
  </diagram>
</mxfile>
